<?xml version="1.0" standalone="no"?>
<!DOCTYPE svg PUBLIC "-//W3C//DTD SVG 20010904//EN"
 "http://www.w3.org/TR/2001/REC-SVG-20010904/DTD/svg10.dtd">
<svg version="1.0" xmlns="http://www.w3.org/2000/svg"
 width="546.000000pt" height="546.000000pt" viewBox="0 0 546.000000 546.000000"
 preserveAspectRatio="xMidYMid meet">
<metadata>
Created by potrace 1.11, written by Peter Selinger 2001-2013
</metadata>
<g transform="translate(0.000000,546.000000) scale(0.100000,-0.100000)"
fill="#000000" stroke="none">
<path d="M368 5455 c-2 -2 -16 -5 -33 -8 -145 -20 -274 -146 -311 -303 -11
-49 -12 -164 -1 -209 3 -11 8 -33 12 -50 13 -50 73 -164 120 -224 51 -66 65
-80 1055 -1091 100 -102 288 -294 417 -427 130 -134 240 -243 244 -243 9 0
659 652 659 662 0 4 -48 57 -107 117 -60 60 -237 241 -394 403 -1034 1058
-1164 1189 -1224 1235 -87 66 -172 106 -275 130 -21 5 -158 11 -162 8z"/>
<path d="M4874 5440 c-86 -24 -135 -52 -206 -119 -50 -47 -1726 -1724 -1776
-1777 -7 -8 -18 -14 -23 -14 -5 0 -9 -4 -9 -8 0 -4 -617 -626 -1370 -1381
-754 -755 -1383 -1392 -1398 -1414 -70 -103 -97 -259 -64 -367 7 -25 15 -53
17 -64 6 -26 58 -105 98 -147 40 -42 110 -91 152 -106 17 -6 39 -15 50 -19 46
-17 161 -23 228 -11 45 8 140 50 176 78 30 23 430 420 432 429 1 3 41 41 89
85 48 44 91 88 95 98 3 9 10 17 13 17 8 0 369 361 2597 2594 767 769 1395
1402 1395 1406 0 5 6 15 13 22 19 18 69 146 62 158 -3 5 -2 11 3 14 8 5 7 143
-1 176 -41 173 -184 318 -352 357 -53 12 -165 9 -221 -7z"/>
<path d="M3233 2194 c-178 -178 -323 -327 -323 -332 0 -4 142 -147 316 -317
174 -171 389 -382 479 -470 310 -306 840 -824 902 -882 101 -94 237 -166 341
-181 74 -10 189 -6 224 8 88 35 117 52 164 99 188 186 149 519 -87 754 -22 21
-39 40 -39 41 0 2 -48 50 -106 107 -58 57 -177 174 -264 259 -86 85 -321 315
-521 512 -200 196 -449 440 -553 542 -104 102 -194 186 -200 185 -6 0 -156
-147 -333 -325z"/>
</g>
</svg>
